<svg width="26" height="26" viewBox="0 0 26 26" fill="none" xmlns="http://www.w3.org/2000/svg">
<path d="M9.9362 0.733398C15.0169 0.733398 19.1362 4.8527 19.1362 9.9334C19.1362 11.4867 18.7475 12.9487 18.0667 14.2329L24.4638 20.6284L24.4584 20.633C24.9583 21.1244 25.2695 21.8052 25.2695 22.5619C25.2695 24.0562 24.0582 25.2675 22.564 25.2675C21.8088 25.2675 21.1272 24.9562 20.6358 24.4556L20.6373 24.4541L14.2426 18.0601C12.9576 18.7432 11.4933 19.1334 9.9362 19.1334C4.8555 19.1334 0.736198 15.0141 0.736198 9.9334C0.736198 4.8527 4.8555 0.733398 9.9362 0.733398ZM21.5934 23.4973C21.8402 23.7533 22.1822 23.9136 22.564 23.9136C23.3115 23.9136 23.9171 23.3087 23.9171 22.5612C23.9171 22.1794 23.7561 21.8382 23.5008 21.5906L23.5077 21.5844L17.3238 15.4005C16.7833 16.1296 16.1393 16.7736 15.4117 17.3156L21.5934 23.4973ZM9.9362 17.6008C14.1697 17.6008 17.6029 14.1669 17.6029 9.93416C17.6029 5.70063 14.1697 2.2675 9.9362 2.2675C5.70343 2.2675 2.26953 5.70063 2.26953 9.93416C2.26953 14.1669 5.70343 17.6008 9.9362 17.6008Z" fill="white"/>
<path d="M9.93411 4.56689C12.8988 4.56689 15.3008 6.96963 15.3008 9.93356C15.3008 10.1452 15.129 10.3169 14.9174 10.3169C14.7058 10.3169 14.5341 10.1452 14.5341 9.93356C14.5341 7.39359 12.4748 5.33356 9.93411 5.33356C9.72328 5.33356 9.55078 5.16183 9.55078 4.95023C9.55078 4.73863 9.72328 4.56689 9.93411 4.56689Z" fill="white"/>
</svg>
